PathFileType	4	(X/Y/Z)	C:\Users\WrightLab\Desktop\Jo\P5V119.trc
DataRate	CameraRate	NumFrames	NumMarkers	Units	OrigDataRate	OrigDataStartFrame	OrigNumFrames
100.00	100.00	       11	19	mm	100.00	143	       569
Frame#	Time	Headset_Front			Headset_Back			Headset_Left			Headset_Right			Left_Shoulder			Right_Shoulder			Sternum			C7			Left Elbow			Right Elbow			Left Wrist			Right Wrist			Left ASIS			Right ASIS			S2			Left Knee			Right Knee			Left Ankle			Right Ankle			
		X1	Y1	Z1	X2	Y2	Z2	X3	Y3	Z3	X4	Y4	Z4	X5	Y5	Z5	X6	Y6	Z6	X7	Y7	Z7	X8	Y8	Z8	X9	Y9	Z9	X10	Y10	Z10	X11	Y11	Z11	X12	Y12	Z12	X13	Y13	Z13	X14	Y14	Z14	X15	Y15	Z15	X16	Y16	Z16	X17	Y17	Z17	X18	Y18	Z18	X19	Y19	Z19	

143	1.420				-395.90903	1610.93274	-886.71851													-269.93484	1295.53455	-949.24634	-264.95932	1505.39465	-1147.47876				-522.20490	1162.42151	-1147.46399	-66.48480	1093.68359	-906.26581	-460.87811	1017.53363	-963.30243	-124.06078	904.85712	-961.86731							-87.13816	474.31558	-1050.55078	-473.12717	505.04922	-930.91785							
144	1.430				-400.26944	1610.00366	-882.65546													-275.75473	1294.43542	-946.25751	-269.15753	1504.44910	-1142.81262				-526.21722	1161.91101	-1143.46887	-71.13398	1092.69202	-901.21796	-464.42682	1015.83203	-960.26721	-127.91795	904.99432	-958.09174							-91.09652	473.00598	-1048.36902	-479.41843	503.63449	-931.55408							
145	1.440				-404.64883	1609.35388	-878.35217													-279.26849	1293.56616	-941.70996	-273.58450	1503.94397	-1139.63440				-531.35974	1162.11792	-1140.41663	-76.28114	1091.45215	-897.61346	-470.38239	1015.45361	-957.16583	-133.23355	903.48773	-952.58783							-94.47309	472.54633	-1044.81482	-484.10156	501.13977	-931.17346							
146	1.450				-408.98859	1608.27942	-873.71265													-285.16602	1292.22668	-937.79993	-278.08136	1502.69568	-1134.61084				-535.58698	1161.24353	-1136.11853	-80.80769	1091.80823	-892.46204	-474.40002	1014.82849	-953.87451	-137.76160	901.55640	-947.84308							-96.63602	472.37717	-1041.07117	-490.77472	500.36642	-931.48767							
147	1.460				-413.61740	1607.29346	-870.00269													-289.67349	1291.54187	-933.65912	-282.67770	1501.78638	-1130.16003				-541.27832	1160.88953	-1132.52917	-86.50431	1090.04944	-887.66956	-479.05521	1014.29639	-950.43109	-143.20483	900.60052	-942.34711							-101.31133	471.84766	-1038.21692	-494.43558	497.94055	-929.83496							
148	1.470				-418.16183	1606.85767	-865.80170													-295.06247	1291.01196	-929.10345	-287.44742	1501.41479	-1126.62317				-546.44556	1160.76526	-1128.28137	-90.78162	1089.38953	-883.35907	-483.83188	1012.94037	-945.18109	-148.43839	899.56879	-937.76849							-105.96319	471.06219	-1034.65686	-499.60168	495.71164	-928.06012							
149	1.480				-422.68250	1606.13940	-860.79474													-300.88190	1289.78723	-924.37585	-292.33740	1500.34851	-1121.66260				-552.28326	1160.52600	-1123.92834	-96.28962	1088.20581	-878.73322	-490.08017	1012.88098	-941.88599	-153.96739	898.88336	-933.61749							-109.97725	470.22180	-1030.80762	-503.43991	494.21936	-925.84149							
150	1.490				-427.37299	1605.46484	-856.14435													-306.42072	1289.35864	-919.86462	-297.31799	1499.57983	-1116.94910				-558.37256	1160.17371	-1118.93518	-101.60630	1087.21240	-873.36243	-495.68704	1012.57941	-937.13477	-160.91797	897.78290	-928.17847							-116.85507	468.79074	-1026.93750	-509.20343	493.11707	-923.76550							
151	1.500				-431.92667	1605.08301	-850.72748													-312.31335	1288.65540	-915.03333	-302.40704	1498.50061	-1112.23682				-564.11218	1160.20264	-1114.26001	-106.41662	1085.75439	-869.10059	-501.56201	1012.48212	-933.29791	-168.29628	896.09509	-922.16071							-121.22000	467.63202	-1021.96094	-513.83667	491.19797	-921.89471							
152	1.510				-436.61420	1604.06580	-845.45868													-318.27649	1287.78613	-909.63141	-307.66022	1497.59302	-1107.96204				-570.54224	1160.08484	-1109.24988	-111.77749	1085.82520	-864.55206	-508.08517	1011.71143	-929.27856	-174.49715	895.15302	-916.84802							-128.65077	466.09460	-1018.91907	-520.66174	490.32996	-920.63922							
153	1.520				-441.28244	1603.46265	-840.54163													-324.31628	1286.15979	-904.96136	-312.94666	1496.98718	-1103.47974				-576.45300	1160.33069	-1104.36169	-117.79552	1083.97241	-858.68225	-513.78748	1011.93268	-924.12622	-181.39114	894.21545	-911.99023							-134.39734	465.76202	-1015.82147	-524.98956	487.20694	-918.73218							
